<svg viewBox="-4.8 -4.8 57.60 57.60" id="a" xmlns="http://www.w3.org/2000/svg" fill="#b18bfc" stroke="#b18bfc" transform="matrix(1, 0, 0, 1, 0, 0)rotate(0)" stroke-width="0.00048000000000000007"><g id="SVGRepo_bgCarrier" stroke-width="0"></g><g id="SVGRepo_tracerCarrier" stroke-linecap="round" stroke-linejoin="round" stroke="#CCCCCC" stroke-width="4.224"><defs><style>.c{fill:none;stroke:#b18bfc;stroke-linecap:round;stroke-linejoin:round;}</style></defs><path class="c" d="m32.1314,28.0011c0,4.5005-3.6405,8.1489-8.1314,8.1489h0c-4.4908,0-8.1314-3.6484-8.1314-8.1489v-8.0022c0-4.5005,3.6405-8.1489,8.1314-8.1489h0c4.4908,0,8.1314,3.6484,8.1314,8.1489"></path><circle class="c" cx="24" cy="24" r="21.5"></circle></g><g id="SVGRepo_iconCarrier"><defs><style>.c{fill:none;stroke:#b18bfc;stroke-linecap:round;stroke-linejoin:round;}</style></defs><path class="c" d="m32.1314,28.0011c0,4.5005-3.6405,8.1489-8.1314,8.1489h0c-4.4908,0-8.1314-3.6484-8.1314-8.1489v-8.0022c0-4.5005,3.6405-8.1489,8.1314-8.1489h0c4.4908,0,8.1314,3.6484,8.1314,8.1489"></path><circle class="c" cx="24" cy="24" r="21.5"></circle></g></svg>